<mxfile host="app.diagrams.net" modified="2021-02-10T00:53:42.058Z" agent="5.0 (Windows NT 10.0; Win64; x64) AppleWebKit/537.36 (KHTML, like Gecko) Chrome/88.0.4324.146 Safari/537.36" etag="5AR0k2Pt7xx8j8QY_AFJ" version="14.3.0" type="github">
  <diagram name="Page-1" id="c7558073-3199-34d8-9f00-42111426c3f3">
    <mxGraphModel dx="1422" dy="906" grid="1" gridSize="10" guides="1" tooltips="1" connect="1" arrows="1" fold="1" page="1" pageScale="1" pageWidth="826" pageHeight="1169" background="#ffffff" math="0" shadow="0">
      <root>
        <mxCell id="0" />
        <mxCell id="1" parent="0" />
        <mxCell id="5" value="From laden branches hang. Wisdom of the way before. Deep draughts from well beyond. Knowledge reflected in its depths." style="shape=process;whiteSpace=wrap;align=center;verticalAlign=middle;size=0.0475;fontStyle=1;strokeWidth=3;fillColor=#d5e8d4;strokeColor=#82b366;" parent="1" vertex="1">
          <mxGeometry x="243" y="210" width="400" height="69" as="geometry" />
        </mxCell>
        <mxCell id="F6xpkMEx-4CO1UtiSVYz-96" value="Between the beginning and the end. Under arms so lovingly crossed. Four cardinals point the way. To regain the blissful seat." style="shape=process;whiteSpace=wrap;align=center;verticalAlign=middle;size=0.0475;fontStyle=1;strokeWidth=3;fillColor=#dae8fc;strokeColor=#6c8ebf;" vertex="1" parent="1">
          <mxGeometry x="1003" y="210" width="400" height="69" as="geometry" />
        </mxCell>
        <mxCell id="F6xpkMEx-4CO1UtiSVYz-97" value="From laden branches hang." style="rounded=1;whiteSpace=wrap;html=1;strokeColor=#2D7600;fontColor=#ffffff;fillColor=#9AC7BF;fontStyle=1;fontSize=11;" vertex="1" parent="1">
          <mxGeometry x="143" y="350" width="120" height="50" as="geometry" />
        </mxCell>
        <mxCell id="F6xpkMEx-4CO1UtiSVYz-98" value="" style="shape=flexArrow;endArrow=classic;html=1;fillColor=#ffe6cc;strokeColor=#d79b00;" edge="1" parent="1">
          <mxGeometry width="50" height="50" relative="1" as="geometry">
            <mxPoint x="233" y="290" as="sourcePoint" />
            <mxPoint x="193" y="340" as="targetPoint" />
          </mxGeometry>
        </mxCell>
        <mxCell id="F6xpkMEx-4CO1UtiSVYz-99" value="Wisdom of the way before." style="rounded=1;whiteSpace=wrap;html=1;strokeColor=#2D7600;fontColor=#ffffff;fillColor=#9AC7BF;fontStyle=1;fontSize=11;" vertex="1" parent="1">
          <mxGeometry x="303" y="350" width="120" height="50" as="geometry" />
        </mxCell>
        <mxCell id="F6xpkMEx-4CO1UtiSVYz-100" value="Deep draughts from well beyond." style="rounded=1;whiteSpace=wrap;html=1;strokeColor=#2D7600;fontColor=#ffffff;fillColor=#9AC7BF;fontStyle=1;fontSize=11;" vertex="1" parent="1">
          <mxGeometry x="463" y="350" width="120" height="50" as="geometry" />
        </mxCell>
        <mxCell id="F6xpkMEx-4CO1UtiSVYz-101" value="Knowledge reflected in its depths" style="rounded=1;whiteSpace=wrap;html=1;strokeColor=#2D7600;fontColor=#ffffff;fillColor=#9AC7BF;fontStyle=1;fontSize=11;" vertex="1" parent="1">
          <mxGeometry x="623" y="350" width="120" height="50" as="geometry" />
        </mxCell>
        <mxCell id="F6xpkMEx-4CO1UtiSVYz-102" value="" style="shape=flexArrow;endArrow=classic;html=1;fillColor=#ffe6cc;strokeColor=#d79b00;" edge="1" parent="1">
          <mxGeometry width="50" height="50" relative="1" as="geometry">
            <mxPoint x="363" y="290" as="sourcePoint" />
            <mxPoint x="363" y="340" as="targetPoint" />
          </mxGeometry>
        </mxCell>
        <mxCell id="F6xpkMEx-4CO1UtiSVYz-105" value="" style="shape=flexArrow;endArrow=classic;html=1;fillColor=#ffe6cc;strokeColor=#d79b00;" edge="1" parent="1">
          <mxGeometry width="50" height="50" relative="1" as="geometry">
            <mxPoint x="523.0000000000002" y="290" as="sourcePoint" />
            <mxPoint x="523.0000000000002" y="340" as="targetPoint" />
          </mxGeometry>
        </mxCell>
        <mxCell id="F6xpkMEx-4CO1UtiSVYz-106" value="" style="shape=flexArrow;endArrow=classic;html=1;fillColor=#ffe6cc;strokeColor=#d79b00;" edge="1" parent="1">
          <mxGeometry width="50" height="50" relative="1" as="geometry">
            <mxPoint x="643" y="290" as="sourcePoint" />
            <mxPoint x="683" y="340" as="targetPoint" />
          </mxGeometry>
        </mxCell>
        <mxCell id="F6xpkMEx-4CO1UtiSVYz-107" value="Between the beginning and the end.&amp;nbsp;" style="rounded=1;whiteSpace=wrap;html=1;strokeColor=#2D7600;fontColor=#ffffff;fillColor=#9AC7BF;fontStyle=1;fontSize=11;" vertex="1" parent="1">
          <mxGeometry x="910" y="350" width="120" height="50" as="geometry" />
        </mxCell>
        <mxCell id="F6xpkMEx-4CO1UtiSVYz-108" value="" style="shape=flexArrow;endArrow=classic;html=1;fillColor=#ffe6cc;strokeColor=#d79b00;" edge="1" parent="1">
          <mxGeometry width="50" height="50" relative="1" as="geometry">
            <mxPoint x="1000.0000000000002" y="290" as="sourcePoint" />
            <mxPoint x="960.0000000000002" y="340" as="targetPoint" />
          </mxGeometry>
        </mxCell>
        <mxCell id="F6xpkMEx-4CO1UtiSVYz-109" value="&amp;nbsp;Under arms so lovingly crossed." style="rounded=1;whiteSpace=wrap;html=1;strokeColor=#2D7600;fontColor=#ffffff;fillColor=#9AC7BF;fontStyle=1;fontSize=11;" vertex="1" parent="1">
          <mxGeometry x="1070" y="350" width="120" height="50" as="geometry" />
        </mxCell>
        <mxCell id="F6xpkMEx-4CO1UtiSVYz-110" value="Four cardinals point the way." style="rounded=1;whiteSpace=wrap;html=1;strokeColor=#2D7600;fontColor=#ffffff;fillColor=#9AC7BF;fontStyle=1;fontSize=11;" vertex="1" parent="1">
          <mxGeometry x="1230" y="350" width="120" height="50" as="geometry" />
        </mxCell>
        <mxCell id="F6xpkMEx-4CO1UtiSVYz-111" value="To regain the blissful seat." style="rounded=1;whiteSpace=wrap;html=1;strokeColor=#2D7600;fontColor=#ffffff;fillColor=#9AC7BF;fontStyle=1;fontSize=11;" vertex="1" parent="1">
          <mxGeometry x="1390" y="350" width="120" height="50" as="geometry" />
        </mxCell>
        <mxCell id="F6xpkMEx-4CO1UtiSVYz-112" value="" style="shape=flexArrow;endArrow=classic;html=1;fillColor=#ffe6cc;strokeColor=#d79b00;" edge="1" parent="1">
          <mxGeometry width="50" height="50" relative="1" as="geometry">
            <mxPoint x="1130.0000000000002" y="290" as="sourcePoint" />
            <mxPoint x="1130.0000000000002" y="340" as="targetPoint" />
          </mxGeometry>
        </mxCell>
        <mxCell id="F6xpkMEx-4CO1UtiSVYz-113" value="" style="shape=flexArrow;endArrow=classic;html=1;fillColor=#ffe6cc;strokeColor=#d79b00;" edge="1" parent="1">
          <mxGeometry width="50" height="50" relative="1" as="geometry">
            <mxPoint x="1290.0000000000002" y="290" as="sourcePoint" />
            <mxPoint x="1290.0000000000002" y="340" as="targetPoint" />
          </mxGeometry>
        </mxCell>
        <mxCell id="F6xpkMEx-4CO1UtiSVYz-114" value="" style="shape=flexArrow;endArrow=classic;html=1;fillColor=#ffe6cc;strokeColor=#d79b00;" edge="1" parent="1">
          <mxGeometry width="50" height="50" relative="1" as="geometry">
            <mxPoint x="1410" y="290" as="sourcePoint" />
            <mxPoint x="1450" y="340" as="targetPoint" />
          </mxGeometry>
        </mxCell>
        <mxCell id="F6xpkMEx-4CO1UtiSVYz-123" value="" style="shape=flexArrow;endArrow=classic;startArrow=classic;html=1;fontSize=11;" edge="1" parent="1">
          <mxGeometry width="50" height="50" relative="1" as="geometry">
            <mxPoint x="840" y="150" as="sourcePoint" />
            <mxPoint x="840" y="70" as="targetPoint" />
          </mxGeometry>
        </mxCell>
        <mxCell id="F6xpkMEx-4CO1UtiSVYz-125" value="" style="shape=flexArrow;endArrow=classic;startArrow=classic;html=1;fontSize=11;" edge="1" parent="1">
          <mxGeometry width="50" height="50" relative="1" as="geometry">
            <mxPoint x="880" y="110" as="sourcePoint" />
            <mxPoint x="800" y="110" as="targetPoint" />
          </mxGeometry>
        </mxCell>
        <mxCell id="F6xpkMEx-4CO1UtiSVYz-126" value="Triad" style="text;html=1;strokeColor=none;fillColor=none;align=center;verticalAlign=middle;whiteSpace=wrap;rounded=0;fontSize=11;" vertex="1" parent="1">
          <mxGeometry x="820" y="40" width="40" height="20" as="geometry" />
        </mxCell>
        <mxCell id="F6xpkMEx-4CO1UtiSVYz-127" value="Cosa Nostra" style="text;html=1;strokeColor=none;fillColor=none;align=center;verticalAlign=middle;whiteSpace=wrap;rounded=0;fontSize=11;" vertex="1" parent="1">
          <mxGeometry x="882" y="100" width="40" height="20" as="geometry" />
        </mxCell>
        <mxCell id="F6xpkMEx-4CO1UtiSVYz-128" value="Mob" style="text;html=1;strokeColor=none;fillColor=none;align=center;verticalAlign=middle;whiteSpace=wrap;rounded=0;fontSize=11;" vertex="1" parent="1">
          <mxGeometry x="820" y="152" width="40" height="20" as="geometry" />
        </mxCell>
        <mxCell id="F6xpkMEx-4CO1UtiSVYz-129" value="Mafia" style="text;html=1;strokeColor=none;fillColor=none;align=center;verticalAlign=middle;whiteSpace=wrap;rounded=0;fontSize=11;" vertex="1" parent="1">
          <mxGeometry x="750" y="100" width="40" height="20" as="geometry" />
        </mxCell>
        <mxCell id="F6xpkMEx-4CO1UtiSVYz-130" value="Label" style="endArrow=classic;html=1;fontSize=11;" edge="1" parent="1">
          <mxGeometry relative="1" as="geometry">
            <mxPoint x="190" y="410" as="sourcePoint" />
            <mxPoint x="130" y="536" as="targetPoint" />
          </mxGeometry>
        </mxCell>
        <mxCell id="F6xpkMEx-4CO1UtiSVYz-131" value="Acquire&lt;br&gt;an apple" style="edgeLabel;resizable=0;html=1;align=center;verticalAlign=middle;" connectable="0" vertex="1" parent="F6xpkMEx-4CO1UtiSVYz-130">
          <mxGeometry relative="1" as="geometry" />
        </mxCell>
        <mxCell id="F6xpkMEx-4CO1UtiSVYz-134" value="Label" style="endArrow=classic;html=1;fontSize=11;exitX=0.458;exitY=1.073;exitDx=0;exitDy=0;exitPerimeter=0;" edge="1" parent="1">
          <mxGeometry relative="1" as="geometry">
            <mxPoint x="362.76000000000005" y="399.9999999999999" as="sourcePoint" />
            <mxPoint x="362.8" y="536.35" as="targetPoint" />
          </mxGeometry>
        </mxCell>
        <mxCell id="F6xpkMEx-4CO1UtiSVYz-135" value="Acquire wisdom of your &quot;father&quot;, &lt;br&gt;the being that came before you." style="edgeLabel;resizable=0;html=1;align=center;verticalAlign=middle;" connectable="0" vertex="1" parent="F6xpkMEx-4CO1UtiSVYz-134">
          <mxGeometry relative="1" as="geometry" />
        </mxCell>
        <mxCell id="F6xpkMEx-4CO1UtiSVYz-136" value="Label" style="endArrow=classic;html=1;fontSize=11;exitX=0.458;exitY=1.073;exitDx=0;exitDy=0;exitPerimeter=0;" edge="1" parent="1">
          <mxGeometry relative="1" as="geometry">
            <mxPoint x="520" y="400" as="sourcePoint" />
            <mxPoint x="520.04" y="536.3499999999999" as="targetPoint" />
          </mxGeometry>
        </mxCell>
        <mxCell id="F6xpkMEx-4CO1UtiSVYz-137" value="&amp;nbsp;Acquire a &lt;br&gt;(healing) beverage." style="edgeLabel;resizable=0;html=1;align=center;verticalAlign=middle;" connectable="0" vertex="1" parent="F6xpkMEx-4CO1UtiSVYz-136">
          <mxGeometry relative="1" as="geometry" />
        </mxCell>
        <mxCell id="F6xpkMEx-4CO1UtiSVYz-138" value="Label" style="endArrow=classic;html=1;fontSize=11;exitX=0.458;exitY=1.073;exitDx=0;exitDy=0;exitPerimeter=0;" edge="1" parent="1">
          <mxGeometry relative="1" as="geometry">
            <mxPoint x="682.76" y="400" as="sourcePoint" />
            <mxPoint x="682.8" y="536.3499999999999" as="targetPoint" />
          </mxGeometry>
        </mxCell>
        <mxCell id="F6xpkMEx-4CO1UtiSVYz-139" value="&amp;nbsp;Look into the well. &lt;br&gt;Give up something and this action reflects &lt;br&gt;in achieving something." style="edgeLabel;resizable=0;html=1;align=center;verticalAlign=middle;" connectable="0" vertex="1" parent="F6xpkMEx-4CO1UtiSVYz-138">
          <mxGeometry relative="1" as="geometry" />
        </mxCell>
        <mxCell id="F6xpkMEx-4CO1UtiSVYz-150" value="Asao, Yskra, Tina, Mila, Emmet, Val, Hong, Erasyl" style="rounded=0;whiteSpace=wrap;html=1;fillColor=#d5e8d4;fontSize=15;strokeColor=#82b366;" vertex="1" parent="1">
          <mxGeometry x="70" y="550" width="120" height="90" as="geometry" />
        </mxCell>
        <mxCell id="F6xpkMEx-4CO1UtiSVYz-152" value="Dhai, Lavern and Bo" style="rounded=0;whiteSpace=wrap;html=1;fillColor=#d5e8d4;fontSize=15;strokeColor=#82b366;" vertex="1" parent="1">
          <mxGeometry x="200" y="550" width="70" height="70" as="geometry" />
        </mxCell>
        <mxCell id="F6xpkMEx-4CO1UtiSVYz-153" value="Label" style="endArrow=classic;html=1;fontSize=11;" edge="1" parent="1">
          <mxGeometry relative="1" as="geometry">
            <mxPoint x="210" y="410" as="sourcePoint" />
            <mxPoint x="230" y="540" as="targetPoint" />
          </mxGeometry>
        </mxCell>
        <mxCell id="F6xpkMEx-4CO1UtiSVYz-154" value="Acquire&lt;br&gt;an apple?" style="edgeLabel;resizable=0;html=1;align=center;verticalAlign=middle;" connectable="0" vertex="1" parent="F6xpkMEx-4CO1UtiSVYz-153">
          <mxGeometry relative="1" as="geometry" />
        </mxCell>
      </root>
    </mxGraphModel>
  </diagram>
</mxfile>
